<svg width="48" height="48" viewBox="0 0 48 48" fill="none" xmlns="http://www.w3.org/2000/svg">
    <path
        d="M19.1608 2.68121H19.6839L19.6185 3.13895L19.4223 3.79291L19.1608 4.44687L18.2452 7.06268V7.65125L18.5068 8.17441L18.8992 8.43597L19.0954 8.50137H19.6185L21.1226 7.78201L22.1689 7.25885L22.3651 7.19345H22.9537L23.4114 7.45505L23.673 7.78201L23.8038 7.97821V8.50137L22.0381 16.4142V17.2643L22.2997 17.7221L22.7575 17.9836H23.4768L23.8692 17.8529H24.327L24.8501 18.1144L25.1771 18.5722L25.2425 18.7684V19.2262L25.1117 19.8147V20.5995L25.5041 21.1226L25.8965 21.3188H26.485L26.9428 21.0572L28.5777 19.4223L29.0354 18.8992L29.8856 18.049L30.3433 17.5259L30.7357 17.1335H30.8665V17.0027L31.5204 16.8719L32.0436 17.0027L32.5014 17.3297L32.6321 17.5913V18.6376L32.2398 23.346V24.0654L32.436 24.4578L32.7629 24.7847L32.9591 24.8501H33.8093L34.3978 24.5886L36.6212 23.6076L36.8174 23.5422H37.406L37.7984 23.7384L38.1253 24.1308L38.2561 24.4578L38.3215 28.0545L38.5831 28.5123L38.9755 28.7738H39.891L40.545 28.2507L41.3951 27.5313L42.1144 26.9428L42.9646 26.2234H43.0954V26.0927L43.8147 25.5041L44.6649 24.7847L45.3842 24.1962L45.8419 23.8692V25.3733L45.7112 26.812L45.3842 28.643L45.1226 29.7548L44.4687 31.7166L43.8147 33.2207L43.2916 34.267L42.6376 35.4442L41.9836 36.4251L41.3951 37.2098L40.8719 37.8638L40.0872 38.7793L39.3679 39.564L38.8447 40.0218L38.1253 40.6758L37.0136 41.5259L36.4251 41.9836H36.2943L36.3597 40.8065L36.6212 37.7984V36.6866L36.3597 36.1635L35.8365 35.7057L35.5096 35.5749L34.921 35.5096H34.5286L34.594 34.2016L34.8556 30.9319L34.7902 30.3433L34.4632 29.8202L33.9401 29.4932L33.2861 29.4278L32.5668 29.6894L31.0627 30.4741L30.7357 30.6049H29.951L29.4278 30.3433L29.0354 29.8856L28.8392 29.3624L28.9046 28.7084L29.1008 27.9237V27.0736L28.7738 26.5504L28.4469 26.2888L28.1199 26.1581H27.4005L22.0381 27.9237L20.2071 28.5123L19.4877 28.5777L18.8992 28.3161L18.5722 27.9891L18.3106 27.5313V18.8338L18.049 18.3106L17.5259 17.9183L17.2643 17.8529H16.6758L16.0218 18.049H15.4986L14.9101 17.7875L14.4523 17.2643L14.3215 16.9373V16.218L14.8447 10.5286V9.94006L14.5177 9.2861L14.0599 8.95914L13.7984 8.89374H13.1444L11.5749 9.61307L9.2861 10.7248L7.78201 11.4442L6.14713 12.2289L5.62399 12.4904L5.49319 12.4251L6.14713 11.4442L6.73569 10.6594L7.32425 9.94006L7.91281 9.2861L8.37057 8.76294L9.2861 7.84741L10.0055 7.25885L11.0518 6.40872L12.2943 5.55859L13.406 4.90463L14.6485 4.2507L16.3488 3.53134L17.6567 3.07358L19.1608 2.68121Z"
        fill="#628963" />
    <path
        d="M7.97821 17.6567L8.56677 17.7221L9.1553 18.049L9.5477 18.5068L9.74387 18.9646V19.8147L9.02451 24.9809V25.6349L9.2861 26.2234L9.67847 26.6812L10.267 26.9428H11.1826L12.0327 26.5504H12.9482L13.6022 26.8774L13.9945 27.3351L14.1907 27.7275V28.8392L13.6022 34.5286V35.248L13.8638 35.9019L14.4523 36.4251L15.0409 36.6212L15.7602 36.5558L16.545 36.1635L17.6567 35.4442L19.0954 34.5286L20.5341 33.6131L21.5804 32.9591L21.7766 32.8937H22.7575L23.346 33.2207L23.7384 33.6785L23.9346 34.0708L24 37.0136L24.2616 37.6676L24.5886 38.0599L25.2425 38.3869H26.1581L29.0354 37.406L31.8474 36.4251L34.5286 35.5096L35.1172 35.4442L35.7057 35.5749L36.0981 35.8365L36.5558 36.3597L36.6866 36.6866V37.7984L36.3597 41.5259L36.2943 42.049L35.0518 42.8338L33.4823 43.6839L31.782 44.4033L29.7548 45.0572L28.3815 45.3842L26.8774 45.6458L25.5695 45.7766H22.4959L20.7303 45.5804L19.2916 45.3188L17.3297 44.7957L15.7602 44.2071L14.1907 43.4877L12.9482 42.8338L11.3788 41.7875L10.267 40.9373L9.4169 40.218L8.43597 39.3025L7.71661 38.5177L6.93188 37.6022L6.14713 36.5558L5.4278 35.4442L4.64304 34.0708L3.92371 32.5668L3.26974 30.8011L2.87741 29.5586L2.48499 27.7275L2.22342 25.8311V22.7575L2.35422 21.3188L3.33514 20.5995L4.64304 19.6839L5.75476 18.8992L6.86649 18.1144L7.38965 17.7875L7.97821 17.6567Z"
        fill="#4C1B54" />
    <path
        d="M13.1444 8.82834H13.7984L14.2561 9.02451L14.5831 9.2861L14.9101 9.94006V10.5286L14.3869 16.218V16.9373L14.6485 17.4605L15.1063 17.8529L15.4986 17.9836H16.0218L16.6758 17.7875H17.2643L17.7221 17.9836L18.1144 18.3106L18.376 18.8338V27.5313L18.703 28.1199L19.0954 28.3815L19.4877 28.5123L20.2071 28.4469L25.3733 26.7466L27.4005 26.0927H28.1199L28.643 26.3542L29.0354 26.812L29.1662 27.0736V27.9237L28.9046 28.97L28.97 29.624L29.297 30.1471L29.624 30.4087L29.951 30.5395H30.7357L32.2398 29.8202L33.0245 29.4278L33.6131 29.3624L34.2016 29.5586L34.6594 29.951L34.921 30.5395L34.8556 31.7166L34.594 35.0518L34.5286 35.5749L30.8665 36.8174L28.0545 37.7984L26.1581 38.4523H25.2425L24.5886 38.1253L24.1962 37.6676L23.9346 37.0136L23.8692 34.0708L23.4768 33.4169L23.1499 33.1553L22.7575 32.9591H21.7766L21.1226 33.2861L19.8147 34.1362L18.376 35.0518L16.9373 35.9673L16.0872 36.4904L15.4332 36.6866L14.7793 36.6212L14.2561 36.3597L13.7984 35.9019L13.5368 35.248V34.5286L14.1253 28.8392V27.7275L13.733 27.0736L13.406 26.812L12.9482 26.6158H12.0327L11.1826 27.0082H10.267L9.61307 26.6812L9.2207 26.2234L8.95914 25.6349V24.9809L9.67847 19.8147V18.9646L9.3515 18.3106L8.95914 17.9836L8.56677 17.7875L7.97821 17.7221L7.38965 17.8529L6.67029 18.3106L5.49319 19.1608L4.25067 20.0109L3.07358 20.8611L2.35422 21.3188L2.55042 19.9455L2.87741 18.4414L3.40054 16.7411L4.0545 15.1063L4.90463 13.406L5.4278 12.5558L5.82016 12.2943L7.32425 11.5749L8.95914 10.7902L10.594 10.0055L12.8174 8.95914L13.1444 8.82834Z"
        fill="#365838" />
    <path
        d="M22.1689 2.22342H25.8311L27.8583 2.48499L27.9237 2.81201L27.4005 9.4823V10.5286L27.6621 10.9864L28.0545 11.248H28.8392L30.5395 10.3978H31.3242L31.7166 10.6594L31.9782 11.0518L32.0436 11.248V11.7057L31.8474 12.4904V13.079L32.109 13.5368L32.6321 13.8638H33.2207L38.7793 12.0327L39.3679 11.9673L39.891 12.1635L40.2834 12.6866V19.4877L40.545 20.0109L40.8719 20.2725L41.0681 20.3379H41.7221L42.049 20.2071H42.5722L42.9646 20.4033L43.357 20.8611L43.4223 21.0572V21.6458L43.03 25.8311L42.9646 26.2888L41.9836 27.1389L41.1335 27.8583L40.4142 28.4469L39.891 28.8392H38.9755L38.5831 28.5777L38.3215 28.2507L38.2561 28.0545L38.1907 24.4578L37.9292 23.9346L37.6022 23.673L37.406 23.6076H36.8174L35.4442 24.1962L34.267 24.7194L33.8093 24.9155H32.9591L32.6321 24.7194L32.2398 24.2616L32.1744 24.0654V23.346L32.5668 18.6376V17.5913L32.5014 17.3297L32.2398 17.1989L31.9128 17.0027L31.455 16.9373L30.8665 17.0027V17.1335L30.3433 17.5913L29.3624 18.6376L28.7084 19.2916L28.2507 19.8147L26.8774 21.188L26.485 21.3842H25.8965L25.3733 21.0572L25.0463 20.5995V19.8147L25.1771 19.2262V18.7684L24.9155 18.2452L24.5232 17.9836L24.327 17.9183H23.8692L23.4768 18.049H22.7575L22.2343 17.7221L21.9727 17.2643V16.4142L23.7384 8.50137V7.97821L23.346 7.45505L22.9537 7.25885H22.3651L21.3842 7.71661L19.8147 8.50137L19.6185 8.56677H19.0954L18.703 8.37057L18.376 8.10901L18.1798 7.65125V7.06268L19.2916 3.85831L19.4877 3.33514L19.6839 2.68121L19.5531 2.61581L20.5341 2.41959L22.1689 2.22342Z"
        fill="#94C196" />
    <path
        d="M22.2343 1.11169H25.5695L27.4659 1.30789L29.2316 1.63489L30.4087 1.96185L32.1744 2.55042L33.8747 3.26974L35.5096 4.1199L36.752 4.90463L37.8638 5.68936L38.5831 6.27792L39.4986 7.06268L40.0872 7.65125L40.4142 7.91281L40.8719 8.43597L41.5913 9.2207L42.3106 10.1362L43.03 11.1172L43.8147 12.3597L44.6649 13.9292L45.4496 15.6948L46.1035 17.6567L46.5613 19.4877L46.7575 20.5995L46.9537 22.5613V25.5695L46.7575 27.2043L46.4305 29.0354L46.1035 30.2779L45.4496 32.2398L44.7303 33.8747L43.8147 35.6403L42.7684 37.2098L41.9836 38.2561L41.1335 39.2371L40.4142 40.0218L39.4332 41.0027L38.7139 41.5913L37.733 42.376L36.4904 43.2262L35.3134 43.9455L33.8093 44.7303L32.3052 45.3842L30.2125 46.1035L28.4469 46.4959L26.7466 46.7575L25.1117 46.8883H22.5613L19.8147 46.5613L17.8529 46.1035L15.6948 45.3842L14.3869 44.7957L13.3406 44.2725L12.2289 43.6839L11.0518 42.8992L9.80927 41.9836L8.95914 41.2643L8.30518 40.6758L6.93188 39.3025L6.34332 38.5831L5.68936 37.7984L4.90463 36.6866L3.92371 35.0518L3.20435 33.6785L2.48499 31.9128L2.02725 30.6049L1.50409 28.5123L1.17709 26.485L1.11169 25.3733V22.7575L1.24249 21.188L1.37329 20.0763L1.76566 18.3106L2.28882 16.6104L2.81201 15.2371L3.40054 13.9292L4.1853 12.4251L5.03543 11.1172L5.75476 10.1362L6.47409 9.2207L7.06268 8.56677L7.52045 8.04361L8.23981 7.32425L8.76294 6.86649L9.67847 6.08173L10.9864 5.1008L12.2289 4.31607L13.2752 3.72751L14.3215 3.20435L15.6294 2.61581L17.3297 2.02725L18.7684 1.63489L20.4687 1.30789L22.2343 1.11169ZM22.1689 2.22342L20.5341 2.41959L19.1608 2.68121L17.4605 3.13895L15.8256 3.72751L13.9945 4.57767L12.4904 5.4278L11.7057 5.95096L10.6594 6.73569L9.61307 7.58582L8.76294 8.37057L7.97821 9.1553L7.52045 9.67847L6.60489 10.7902L5.68936 12.0981L4.77383 13.6676L3.98911 15.2371L3.33514 16.9373L2.87741 18.4414L2.48499 20.2071L2.28882 21.7766L2.22342 22.7575V25.8311L2.48499 27.7275L2.87741 29.5586L3.66214 31.9128L4.31607 33.4169L5.1008 34.921L5.88556 36.1635L6.53949 37.079L7.38965 38.1253L8.10901 38.9101L8.82834 39.6948L9.67847 40.4796L10.594 41.1989L11.6403 41.9836L12.752 42.703L14.1907 43.4877L15.4332 44.0763L17.1335 44.7303L18.2452 45.0572L19.8801 45.4496L21.7112 45.7112L22.4959 45.7766H25.5695L27.2697 45.5804L28.9046 45.2534L30.2125 44.9264L32.109 44.2725L33.7439 43.5531L35.1826 42.7684L36.4904 41.9183L37.6022 41.0681L38.3215 40.4796L39.1063 39.7602L39.6294 39.3025L40.0872 38.7793L40.7411 38.0599L41.4605 37.1444L42.3106 35.9673L42.8992 34.9864L43.6839 33.5477L44.4687 31.7166L44.9918 30.1471L45.2534 29.2316L45.5804 27.5967L45.7766 26.1581L45.8419 25.3733V22.3651L45.5804 20.2725L45.188 18.5068L44.8611 17.3951L44.4033 16.0872L43.8147 14.7139L42.9646 13.079L42.1798 11.8365L41.5259 10.921L40.6758 9.87466L40.0872 9.2207L39.6294 8.69754L39.0409 8.10901L38.5177 7.65125L37.6022 6.86649L36.6212 6.14713L35.6403 5.49319L34.3978 4.77383L33.3515 4.2507L31.8474 3.59674L30.1471 3.00818L28.8392 2.68121L27.3351 2.41959L25.8311 2.22342H22.1689Z"
        fill="#FDFCFB" />
    <path
        d="M27.9237 2.55042L28.8392 2.68121L30.1471 3.00818L32.1744 3.72751L33.4823 4.31607L34.5286 4.83923L35.6403 5.49319L36.4251 6.01636L37.3406 6.67029L38.1907 7.38965L38.8447 7.97821L39.4986 8.56677L40.0218 9.0899L40.4796 9.61307L41.3951 10.7248L42.1798 11.8365L42.8338 12.8828L43.4877 14.0599L44.2071 15.564L44.7303 16.9373L45.0572 18.1144L45.3842 19.2916L45.6458 20.7303L45.8419 22.3651V23.8692L44.8611 24.7194L44.0109 25.4387L43.2916 26.0273L43.0954 26.0927V26.2234H42.9646L43.03 25.1117L43.357 21.6458V21.0572L43.1608 20.6649L42.7684 20.3379L42.5722 20.2725H42.049L41.7221 20.4033H41.0681L40.6104 20.1417L40.3488 19.8147L40.218 19.4877V12.6866L39.891 12.2289L39.3679 12.0327L38.7793 12.0981L35.8365 13.079L33.2207 13.9292H32.6321L32.109 13.6022L31.8474 13.2752L31.782 13.079V12.4904L31.9782 11.7057V11.248L31.7166 10.7248L31.3242 10.4632H30.5395L28.8392 11.3134H28.0545L27.5313 10.921L27.3351 10.5286V9.4823L27.8583 2.81201L27.9237 2.55042Z"
        fill="#CEFFCE" />
    <path
        d="M1.11169 22.1035H1.17709V25.3733L1.30789 27.0082L1.63489 28.8392L1.96185 30.1471L2.55042 31.9128L3.13895 33.3515L3.79291 34.7248L4.83923 36.4904L5.62399 37.6022L6.34332 38.5177L6.93188 39.1717L7.38965 39.6948L8.76294 41.0681L9.4823 41.6567L10.6594 42.5722L12.0327 43.4877L13.2098 44.1417L14.2561 44.6649L15.3679 45.188L17.1989 45.8419L18.8992 46.2997L20.2725 46.5613L22.5613 46.8229H25.1117L27.2697 46.6267L29.4278 46.2343L30.3433 45.9727L32.6321 45.188L33.9401 44.5995L35.5749 43.7493L36.1635 43.4223V44.7303L34.9864 45.3842L33.1553 46.2343L31.1935 46.9537L29.6894 47.346L28.1199 47.673L26.8774 47.8692L24.5232 48H22.6267L21.3188 47.8692L19.7493 47.673L18.1144 47.2806L16.8719 46.9537L15.3679 46.4305L13.733 45.7112L12.2943 44.9918L10.7902 44.0763L9.74387 43.2916L8.95914 42.703L8.10901 41.9836L7.45505 41.3951L6.21252 40.1526L5.62399 39.4332L4.90463 38.5831L4.0545 37.406L2.94278 35.5749L2.41962 34.5286L1.83105 33.2861L1.17709 31.455L0.915527 30.7357L0.588562 29.4932L0.261566 27.7275L0.130798 27.0082L0 25.3079V22.8229L1.11169 22.1035Z"
        fill="#16064E" />
    <path
        d="M27.8583 0.261566L29.624 0.588562L30.9973 0.980927L32.6975 1.56949L34.3978 2.28882L35.9019 3.07358L37.2752 3.92371L38.3869 4.70844L39.4332 5.55859L40.3488 6.34332L41.9836 7.97821L42.5722 8.69754L43.4223 9.74387L44.3379 11.1172L44.9264 12.0981L45.7112 13.5368L46.3651 15.0409L46.9537 16.6758L47.4768 18.5068L47.8038 20.2071L48 21.8419V22.1035H47.8692V22.2343L47.346 22.6921L46.9537 22.9537L46.6267 20.2071L46.2343 18.376L45.7112 16.6104L45.188 15.2371L44.4687 13.6676L43.6839 12.2289L42.6376 10.6594L41.9836 9.80927L41.2643 8.95914L40.6758 8.30518L40.218 7.78201L39.6948 7.32425L38.7793 6.47409L37.8638 5.75476L36.752 4.97003L35.3788 4.1199L33.6131 3.20435L31.8474 2.48499L30.2779 1.96185L28.8392 1.63489L27.7929 1.43869L27.9237 1.37329L27.8583 0.261566Z"
        fill="#F9F9FB" />
    <path
        d="M47.8692 22.1035H48L48.0654 22.6267V25.4387L47.8692 27.2043L47.6076 28.7084L47.346 29.8856L47.0845 30.9319L46.4305 32.7629L45.6458 34.5286L44.9264 35.9019L44.2071 37.079L43.4223 38.1907L42.703 39.1063L41.9183 40.0218L40.9373 41.0681L40.4142 41.5913L39.891 42.049L39.0409 42.7684L37.9945 43.5531L37.0136 44.2071L36.2943 44.6649H36.1635V43.357L36.8828 42.8992L38.0599 42.049L38.7793 41.4605L39.6948 40.6758L40.8719 39.4986L41.4605 38.7793L41.9836 38.1907L42.8992 36.9482L43.6185 35.8365L44.4033 34.3978L45.1226 32.8937L45.7766 31.1281L46.2997 29.3624L46.6267 27.6621L46.8229 26.2234L46.8883 25.5695L46.9537 22.9537L47.7384 22.2343H47.8692V22.1035Z"
        fill="#8E87A8" />
    <path
        d="M20.6649 0.196198L20.7957 0.261566L20.4687 1.04633L20.3379 1.37329L17.9836 1.89645L16.3488 2.41959L15.0409 2.94278L13.6022 3.59674L12.4251 4.2507L11.1826 5.03543L9.94006 5.95096L9.02451 6.73569L8.50137 7.19345L7.71661 7.91281L7.19345 8.43597L6.60489 9.1553L5.95096 9.94006L5.1008 11.1172L4.38147 12.2289L3.72751 13.406L3.53134 13.6676V13.5368L2.15805 14.2561L2.09265 14.0599L2.87741 12.4904L3.66214 11.1826L4.51227 9.94006L5.1662 9.0899L5.68936 8.43597L6.34332 7.71661L6.80109 7.19345L7.25885 6.73569L7.78201 6.27792L8.50137 5.62399L9.4169 4.90463L10.267 4.2507L11.5096 3.46594L12.752 2.74661L14.6485 1.83105L16.3488 1.17709L17.5259 0.850128L18.1144 0.653961L20.0109 0.261566L20.6649 0.196198Z"
        fill="#8E87A8" />
    <path
        d="M3.40054 13.5368H3.53134L3.46594 13.9292L2.81201 15.3679L2.22342 17.0027L1.83105 18.3106L1.43869 20.0763L1.17709 22.1035L0.196198 22.7575L0 22.8229L0.0653992 21.515L0.261566 20.0109L0.588562 18.5722L0.915527 17.2643L1.50409 15.4986L2.02725 14.2561L3.40054 13.5368Z"
        fill="#787099" />
    <path
        d="M22.2343 0H25.5695L27.6621 0.196198L27.9237 0.326965V1.37329L26.9428 1.30789L25.5695 1.17709H22.2343L20.3379 1.37329L20.4033 1.04633L20.7303 0.261566L20.9264 0.130798L22.2343 0Z"
        fill="#BCB8CD" />
    <path
        d="M24.9055 38.252C24.5191 38.0639 24.2472 37.7488 24.0772 37.2923C23.9469 36.9422 23.9414 36.8812 23.9157 35.4912L23.8891 34.0524L23.6944 33.7311C23.4736 33.3668 23.3939 33.2877 23.0301 33.0722C22.7935 32.9321 22.73 32.9188 22.2911 32.9184C21.846 32.9179 21.7851 32.931 21.4551 33.0971C21.2594 33.1957 20.8296 33.4514 20.5001 33.6654C19.693 34.1894 17.19 35.782 16.5982 36.1481C15.9419 36.5541 15.622 36.6605 15.1556 36.6281C14.7014 36.5966 14.3756 36.4405 14.0387 36.093C13.6935 35.7368 13.5823 35.42 13.5826 34.7926C13.5827 34.516 13.7108 33.0567 13.8673 31.5496C14.0238 30.0425 14.1518 28.5673 14.1518 28.2714C14.1518 27.7366 14.1506 27.7312 13.9459 27.3877C13.5889 26.7885 13.2411 26.6022 12.4798 26.6022C12.0386 26.6022 11.9705 26.6165 11.6224 26.7834C11.2686 26.9529 11.2114 26.9645 10.7294 26.9645C10.2632 26.9645 10.1861 26.9502 9.91492 26.8133C9.38296 26.5448 8.97501 25.8957 8.97501 25.3179C8.97501 25.1542 9.13787 23.8561 9.33695 22.4333C9.76054 19.4059 9.77749 19.0915 9.54239 18.6258C9.10039 17.7502 8.07138 17.4604 7.1839 17.9616C7.03875 18.0436 6.50052 18.4081 5.9878 18.7715C3.06109 20.846 2.46717 21.2505 2.41916 21.2025C2.40801 21.1914 2.4457 20.87 2.50287 20.4884C2.87054 18.0348 3.79085 15.4332 5.08148 13.1991C5.33038 12.7683 5.47932 12.5688 5.63275 12.461C5.82273 12.3275 8.62913 10.963 11.8222 9.4517C12.9518 8.917 13.0647 8.8745 13.4012 8.85667C13.7057 8.84057 13.809 8.85852 14.0483 8.96919C14.4319 9.14657 14.5279 9.23894 14.7161 9.61173C14.9309 10.0374 14.9298 10.0833 14.6177 13.453C14.4754 14.9904 14.3589 16.4005 14.3589 16.5864C14.3589 16.8573 14.3888 16.9832 14.5096 17.2206C14.8642 17.9177 15.5375 18.1652 16.3695 17.9044C17.1662 17.6546 17.881 17.9175 18.219 18.5846L18.3451 18.8334V23.1687V27.504L18.5118 27.8256C18.6477 28.0876 18.7314 28.1791 18.9635 28.3194C19.2331 28.4824 19.2735 28.4914 19.7156 28.4865C20.1797 28.4813 20.2071 28.4733 23.7531 27.3087C27.2086 26.1739 27.3367 26.1362 27.7393 26.1361C28.3477 26.1359 28.6999 26.3431 29.0479 26.906C29.2122 27.1717 29.2059 27.6907 29.0299 28.3788C28.8452 29.1009 28.8721 29.5213 29.1283 29.9201C29.4299 30.3895 29.7937 30.5883 30.3512 30.5883C30.6847 30.5883 30.738 30.5685 31.8726 30.0225C33.2004 29.3836 33.4182 29.3245 33.8846 29.4767C34.2786 29.6052 34.5842 29.8719 34.7576 30.2386C34.9256 30.5937 34.931 30.3043 34.6994 33.343C34.6155 34.4452 34.5282 35.3973 34.5054 35.4587C34.4709 35.5521 34.0623 35.7079 32.0085 36.4106C30.658 36.8728 28.8051 37.5106 27.8911 37.8281L26.2292 38.4054L25.7168 38.4014C25.2652 38.3979 25.1689 38.3802 24.9055 38.252Z"
        fill="#787099" />
    <path
        d="M36.3605 41.8531C36.3605 41.8132 36.442 40.8574 36.5417 39.7291C36.7413 37.4688 36.7637 36.7913 36.6477 36.5136C36.5501 36.2802 36.1794 35.8494 35.9378 35.6887C35.6758 35.5144 35.1608 35.4049 34.8198 35.4511C34.586 35.4827 34.5509 35.4764 34.5719 35.4065C34.5944 35.3311 34.8769 31.7537 34.9264 30.9158C34.9452 30.5973 34.9288 30.5001 34.8111 30.2341C34.6421 29.8524 34.3072 29.5582 33.8931 29.4277C33.4075 29.2746 33.2016 29.3299 31.8698 29.971C30.7349 30.5173 30.683 30.5366 30.3482 30.5366C29.7691 30.5366 29.3884 30.3047 29.1013 29.777C28.9224 29.4482 28.9079 29.0482 29.0538 28.4658C29.1774 27.9722 29.2062 27.088 29.1049 26.8964C28.9769 26.6542 28.6277 26.3121 28.3971 26.2028C28.212 26.1151 28.0584 26.0877 27.7428 26.0863C27.3423 26.0845 27.2271 26.1184 23.7566 27.2606L20.1829 28.4368L19.716 28.4384C19.2739 28.4399 19.2348 28.4308 18.9798 28.2672C18.7829 28.141 18.6682 28.0166 18.5536 27.8051L18.3969 27.5156V23.1748V18.8339L18.2454 18.5377C18.0782 18.2107 17.8783 18.0299 17.4973 17.8614C17.1798 17.721 16.8196 17.7184 16.3779 17.8533C15.5424 18.1084 14.8903 17.8713 14.5431 17.1862C14.3605 16.826 14.3653 16.684 14.6695 13.3909C14.8119 11.85 14.9284 10.441 14.9284 10.2597C14.9284 9.98766 14.8975 9.86883 14.7516 9.57913C14.4754 9.03059 14.0094 8.76554 13.3878 8.8034C13.0693 8.82278 12.9235 8.87926 11.7187 9.44931C9.12363 10.6772 5.79008 12.2791 5.72526 12.3294C5.5426 12.4711 5.64038 12.2623 6.01549 11.7095C6.80685 10.5432 8.14872 8.97778 9.13768 8.06708C11.8322 5.58581 14.975 3.83587 18.3798 2.92117C19.2172 2.69618 19.6393 2.63211 19.6393 2.72986C19.6393 2.78388 19.469 3.285 18.7141 5.45215C18.273 6.71856 18.1381 7.16744 18.1385 7.36761C18.1398 8.03637 18.6932 8.58654 19.3649 8.58685C19.644 8.58699 19.7592 8.54126 20.9948 7.93976C22.2533 7.32711 22.3413 7.29251 22.6405 7.29251C23.0486 7.29251 23.2838 7.41346 23.5349 7.75247C23.6853 7.95555 23.729 8.06256 23.729 8.2276C23.729 8.34474 23.333 10.2138 22.849 12.381C22.0438 15.986 21.9689 16.3634 21.9697 16.8155C21.9708 17.4161 22.0704 17.6345 22.4622 17.8949C22.744 18.0823 22.7227 18.0812 24.0274 17.978C24.3766 17.9504 24.4204 17.9587 24.6399 18.0949C24.8134 18.2026 24.9164 18.3202 25.0274 18.5377C25.1964 18.8688 25.2089 19.0324 25.0998 19.484C25.0586 19.6548 25.0245 19.9768 25.024 20.1994C25.0233 20.5666 25.0379 20.6255 25.181 20.8336C25.2678 20.9597 25.4663 21.1445 25.6221 21.2441C25.8581 21.3951 25.9529 21.4253 26.1911 21.4253C26.372 21.4253 26.5493 21.3883 26.6743 21.3246C26.7903 21.2654 27.4977 20.5772 28.3905 19.6551C29.2258 18.7922 30.1261 17.8733 30.3912 17.613C30.6562 17.3527 30.8731 17.1156 30.8731 17.0861C30.8731 17.0121 31.3917 16.9538 31.674 16.9962C31.9189 17.0329 32.3558 17.2444 32.4649 17.3791C32.5775 17.518 32.5393 18.6943 32.3485 20.9594C32.2489 22.141 32.1674 23.3568 32.1674 23.6611L32.1672 24.2145L32.3808 24.4636C32.7223 24.8618 32.8964 24.945 33.3894 24.9453C33.7907 24.9456 33.8409 24.9316 34.5283 24.629C36.7199 23.6644 36.755 23.6513 37.1591 23.6513C37.4892 23.6513 37.5568 23.6685 37.7196 23.7937C37.8262 23.8757 37.9605 24.0567 38.0365 24.2208C38.1671 24.5028 38.1688 24.5235 38.2092 26.3475L38.25 28.1894L38.394 28.3779C38.4731 28.4816 38.6404 28.637 38.7656 28.7232C38.9773 28.8689 39.0257 28.8799 39.45 28.8791L39.9066 28.8781L40.5352 28.3743C41.1324 27.8957 42.5882 26.6642 42.8989 26.3748C42.9787 26.3005 43.0661 26.2398 43.0931 26.2398C43.1201 26.2398 43.1422 26.2048 43.1422 26.1621C43.1422 26.1194 43.1687 26.0845 43.2011 26.0845C43.2752 26.0845 43.7365 25.7121 44.9205 24.697L45.8495 23.9004L45.8181 24.9018C45.7761 26.2407 45.5364 27.9517 45.2064 29.2682C44.9034 30.4769 44.1126 32.5883 43.525 33.7577C42.3616 36.0729 40.6104 38.3858 38.7899 40.0117C38.0692 40.6555 36.4831 41.9251 36.3993 41.9254C36.3779 41.9256 36.3605 41.8929 36.3605 41.8531Z"
        fill="#8E87A8" />
    <path
        d="M38.7677 28.6761C38.6538 28.595 38.5024 28.4504 38.4312 28.3549C38.3069 28.1879 38.3005 28.1416 38.268 27.1716C38.2494 26.6164 38.2319 25.7829 38.2292 25.3194C38.2243 24.496 38.2207 24.4699 38.0732 24.1776C37.8533 23.7421 37.6262 23.5996 37.1518 23.5996C36.7565 23.5996 36.7116 23.6163 34.5284 24.5772C33.839 24.8807 33.7916 24.8938 33.3843 24.8938C32.9985 24.8938 32.9404 24.8801 32.7541 24.7451C32.6412 24.6633 32.4746 24.5028 32.3839 24.3882C32.2215 24.1831 32.219 24.1717 32.2191 23.618C32.2192 23.3089 32.3007 22.0892 32.4002 20.9076C32.5669 18.9287 32.6216 17.6715 32.5521 17.4131C32.5189 17.2894 31.969 16.9901 31.6875 16.9426C31.4053 16.8948 30.8213 16.9659 30.8213 17.0479C30.8213 17.0845 30.5352 17.403 30.1855 17.7556C29.8358 18.1083 28.9474 19.0211 28.2113 19.7842C27.4284 20.5957 26.7906 21.2135 26.6748 21.2725C26.5509 21.3357 26.3744 21.3731 26.203 21.3723C25.8616 21.3709 25.4721 21.1464 25.2293 20.811C25.0499 20.5633 25.0492 20.5476 25.1562 19.1688C25.1861 18.784 25.1776 18.7281 25.0521 18.4803C24.9553 18.2895 24.8442 18.1652 24.6716 18.0549C24.444 17.9095 24.4039 17.9011 24.0655 17.9276C22.7503 18.0306 22.7852 18.0321 22.5057 17.8602C22.1177 17.6214 22.0206 17.409 22.0206 16.7985C22.0206 16.3563 22.0804 16.0337 22.5616 13.8806C22.8591 12.5492 23.2551 10.7758 23.4417 9.9397C23.6282 9.1036 23.7808 8.32531 23.7808 8.21017C23.7808 8.04591 23.7359 7.94131 23.5723 7.72461C23.3046 7.37011 23.0549 7.24075 22.6382 7.24075C22.3358 7.24075 22.2539 7.27303 20.9979 7.88785C19.7608 8.49336 19.6562 8.53494 19.3708 8.53494C18.7076 8.53494 18.1938 8.02749 18.1909 7.36966C18.19 7.17194 18.3203 6.73539 18.7391 5.53189C19.4934 3.36424 19.676 2.82724 19.6984 2.71124C19.7221 2.58825 20.0026 2.52405 21.1635 2.37613C21.8687 2.28628 22.2837 2.27097 24.0147 2.27097C26.0254 2.27097 26.3373 2.28981 27.5252 2.48306L27.8787 2.54056L27.8482 2.7811C27.7763 3.34666 27.301 9.67809 27.301 10.0695C27.301 10.6183 27.4123 10.8652 27.782 11.1363C28.0345 11.3215 28.0654 11.3304 28.451 11.3304C28.8529 11.3304 28.8601 11.328 29.6824 10.9163L30.5095 10.5021H30.9249C31.4439 10.5021 31.629 10.6058 31.8255 11.0064C31.9894 11.3405 31.9947 11.5666 31.8519 12.1242C31.6992 12.7202 31.7271 13.153 31.9353 13.4176C32.176 13.7234 32.6192 13.9706 32.9267 13.9706C33.1166 13.9706 33.8926 13.7364 36.0001 13.0429C37.5508 12.5326 38.9476 12.1006 39.1042 12.0829C39.501 12.038 39.8239 12.1683 40.0337 12.4579L40.1914 12.6755V16.0903C40.1914 18.6575 40.207 19.5409 40.2543 19.6498C40.4609 20.1249 40.9153 20.4404 41.394 20.4412C41.5571 20.4415 41.7848 20.404 41.9 20.3579C42.0399 20.3019 42.2087 20.2813 42.4088 20.2958C42.6548 20.3136 42.7481 20.3494 42.9307 20.4961C43.2037 20.7153 43.3491 20.9877 43.3497 21.2809C43.35 21.403 43.2687 22.3998 43.1691 23.496C43.0695 24.5922 42.974 25.6706 42.9569 25.8925L42.9259 26.2958L41.9167 27.1593C41.3616 27.6342 40.6747 28.204 40.3901 28.4255L39.8728 28.8282L39.4238 28.8259C39.0151 28.8238 38.9562 28.8103 38.7677 28.6761Z"
        fill="#BCB8CD" />
    <path
        d="M43.0063 25.7609C43.0243 25.526 43.1253 24.3939 43.2308 23.2451L43.4225 21.1563L43.2694 20.8687C43.0595 20.4744 42.7715 20.274 42.3734 20.2452C42.1617 20.2299 42.0236 20.2482 41.9106 20.3067C41.8117 20.3578 41.6213 20.3899 41.417 20.3899C40.9063 20.3899 40.5144 20.1288 40.3061 19.6498C40.2588 19.541 40.2431 18.6606 40.2431 16.1047V12.7044L40.0766 12.4604C39.7645 12.0031 39.2471 11.9164 38.4659 12.1907C38.2714 12.259 37.0063 12.6757 35.6546 13.1169C32.8521 14.0314 32.8396 14.0338 32.3724 13.7416C31.9515 13.4783 31.8365 13.2963 31.814 12.8576C31.8012 12.6068 31.8288 12.3651 31.9037 12.0725C32.048 11.509 32.0409 11.3322 31.8601 10.9796C31.6432 10.5565 31.4557 10.4504 30.9249 10.4504H30.5095L29.6824 10.8645C28.8586 11.2771 28.8537 11.2787 28.448 11.2787C28.0611 11.2787 28.0286 11.2695 27.8 11.0949C27.4397 10.8198 27.3528 10.6085 27.3528 10.0075C27.3528 9.51986 27.8433 3.00543 27.9012 2.72394C27.9173 2.64564 27.9461 2.58199 27.9652 2.58249C27.9843 2.58299 28.2095 2.61575 28.4658 2.65525C30.2132 2.92454 33.0882 4.0254 35.0473 5.17533C35.7449 5.5848 37.1124 6.52113 37.5771 6.9075C38.3863 7.58044 39.7605 8.84109 40.0931 9.21579C41.6763 10.9992 42.7821 12.664 43.8177 14.8234C44.3478 15.9289 44.6734 16.8178 45.0505 18.1898C45.5376 19.962 45.8341 21.8485 45.8341 23.1758V23.8468L44.9929 24.5664C43.6313 25.7311 43.2567 26.0327 43.1711 26.0327C43.1267 26.0327 43.0904 26.0676 43.0904 26.1104C43.0904 26.1531 43.0641 26.188 43.032 26.188C42.9906 26.188 42.9831 26.063 43.0063 25.7609Z"
        fill="#F9F9FB" />
    <path
        d="M21.6676 45.6499C19.8557 45.4246 18.0308 45.0024 16.6246 44.4833C14.6211 43.7437 12.4091 42.5138 10.6116 41.1401C9.66728 40.4185 7.78547 38.5465 6.95027 37.498C4.57452 34.5153 2.94902 30.6931 2.40342 26.8065C2.27256 25.8742 2.2319 23.1551 2.33125 21.9797L2.38487 21.3452L3.02223 20.9197C3.3728 20.6857 4.24381 20.0809 4.95787 19.5756C7.39985 17.8477 7.70974 17.6756 8.19841 17.7753C8.30485 17.797 8.48329 17.8336 8.59492 17.8566C9.13289 17.9676 9.64838 18.714 9.6483 19.3819C9.64828 19.6025 9.47881 20.9892 9.27174 22.4634C9.06467 23.9375 8.89508 25.2425 8.89488 25.3633C8.89397 25.9015 9.38074 26.6017 9.95826 26.893C10.343 27.087 11.1632 27.0706 11.5748 26.8606C11.8128 26.7392 12.0684 26.6932 12.5038 26.6932C13.2286 26.6932 13.5671 26.8669 13.8789 27.3988C14.159 27.8768 14.1527 28.1977 13.7944 31.6708C13.6331 33.2338 13.5012 34.6748 13.5012 34.8729C13.5012 35.2946 13.7046 35.8663 13.9537 36.1451C14.3595 36.5992 15.1643 36.807 15.7888 36.619C15.9881 36.5591 17.3169 35.7678 18.7418 34.8606C20.1668 33.9534 21.4597 33.158 21.6151 33.0931C22.3694 32.7777 23.2307 33.0599 23.6296 33.7532C23.8138 34.0732 23.8319 34.2101 23.8632 35.5267C23.9086 37.4377 24.0881 37.9205 24.91 38.3432C25.4872 38.6401 25.9447 38.5688 27.9631 37.8673C28.9691 37.5177 30.444 37.0092 31.2407 36.7373C32.0374 36.4654 33.183 36.0702 33.7865 35.8591C35.1898 35.3683 35.482 35.3845 36.1401 35.9894L36.5766 36.3907L36.6036 37.2165C36.6185 37.6707 36.5525 38.9031 36.457 39.955C36.3616 41.007 36.2835 41.8988 36.2835 41.9368C36.2835 42.007 35.0584 42.7758 34.1505 43.2755C32.2809 44.3042 29.2354 45.2641 26.8213 45.5856C26.0142 45.6931 22.3792 45.7385 21.6676 45.6499Z"
        fill="#16064E" />
    <path
        d="M22.0864 47.9182C21.9482 47.8976 21.364 47.8231 20.7882 47.7527C18.3125 47.4498 15.618 46.6046 13.1124 45.3448C10.0179 43.789 6.76759 41.0122 4.59795 38.0707C3.03289 35.9489 1.5186 32.7627 0.782766 30.0435C0.309696 28.2952 0.016306 25.9781 0.019186 24.0129L0.0208645 22.8821L0.497915 22.5889C0.760315 22.4277 0.99898 22.285 1.02828 22.2718C1.05758 22.2586 1.10394 23.1632 1.13128 24.282C1.18416 26.4447 1.24277 27.0307 1.57116 28.6811C2.16467 31.6639 3.71965 35.1334 5.56029 37.5817C7.86943 40.6532 10.3229 42.7151 13.6971 44.4201C16.3209 45.7459 18.3232 46.3535 21.247 46.7111C24.5459 47.1147 28.1183 46.7621 31.1742 45.7314C32.7909 45.1861 33.6482 44.8197 35.0799 44.0623L36.1236 43.5101L36.0988 44.1161L36.0741 44.7221L35.5296 45.0275C33.1666 46.353 30.3024 47.3011 27.2794 47.7583C26.4706 47.8806 22.629 47.9989 22.0864 47.9182Z"
        fill="#122F16" />
</svg>